<mxfile host="app.diagrams.net" modified="2021-08-28T18:07:23.704Z" agent="5.0 (Windows NT 10.0; Win64; x64) AppleWebKit/537.36 (KHTML, like Gecko) Chrome/92.0.4515.159 Safari/537.36" etag="SHyM3YNtUBTaskEZnDo3" version="15.0.3" type="github">
  <diagram id="NM06wKpaoKB637WCqihN" name="Page-1">
    <mxGraphModel dx="782" dy="436" grid="1" gridSize="10" guides="1" tooltips="1" connect="1" arrows="1" fold="1" page="1" pageScale="1" pageWidth="827" pageHeight="1169" math="0" shadow="0">
      <root>
        <mxCell id="0" />
        <mxCell id="1" parent="0" />
        <mxCell id="9dUxcS6R7O2TgOQSEWJq-6" style="edgeStyle=orthogonalEdgeStyle;rounded=0;orthogonalLoop=1;jettySize=auto;html=1;strokeWidth=2;strokeColor=#DB0000;shadow=1;" edge="1" parent="1" source="9dUxcS6R7O2TgOQSEWJq-1" target="9dUxcS6R7O2TgOQSEWJq-2">
          <mxGeometry relative="1" as="geometry" />
        </mxCell>
        <mxCell id="9dUxcS6R7O2TgOQSEWJq-1" value="GPS MODEM" style="rounded=1;whiteSpace=wrap;html=1;fillColor=#f8cecc;strokeColor=#b85450;shadow=1;" vertex="1" parent="1">
          <mxGeometry x="40" y="170" width="120" height="60" as="geometry" />
        </mxCell>
        <mxCell id="9dUxcS6R7O2TgOQSEWJq-7" style="edgeStyle=orthogonalEdgeStyle;rounded=0;orthogonalLoop=1;jettySize=auto;html=1;entryX=1;entryY=0.5;entryDx=0;entryDy=0;strokeWidth=2;strokeColor=#DB0000;shadow=1;sketch=0;" edge="1" parent="1" source="9dUxcS6R7O2TgOQSEWJq-2" target="9dUxcS6R7O2TgOQSEWJq-3">
          <mxGeometry relative="1" as="geometry" />
        </mxCell>
        <mxCell id="9dUxcS6R7O2TgOQSEWJq-2" value="MAX232" style="rounded=1;whiteSpace=wrap;html=1;fillColor=#f8cecc;strokeColor=#b85450;shadow=1;" vertex="1" parent="1">
          <mxGeometry x="250" y="170" width="120" height="60" as="geometry" />
        </mxCell>
        <mxCell id="9dUxcS6R7O2TgOQSEWJq-8" style="edgeStyle=orthogonalEdgeStyle;rounded=0;orthogonalLoop=1;jettySize=auto;html=1;strokeWidth=2;strokeColor=#DB0000;shadow=1;" edge="1" parent="1" source="9dUxcS6R7O2TgOQSEWJq-3" target="9dUxcS6R7O2TgOQSEWJq-4">
          <mxGeometry relative="1" as="geometry" />
        </mxCell>
        <mxCell id="9dUxcS6R7O2TgOQSEWJq-3" value="CONTROLLER" style="rounded=1;whiteSpace=wrap;html=1;direction=west;fillColor=#dae8fc;strokeColor=#6c8ebf;shadow=1;" vertex="1" parent="1">
          <mxGeometry x="430" y="90" width="140" height="220" as="geometry" />
        </mxCell>
        <mxCell id="9dUxcS6R7O2TgOQSEWJq-4" value="LCD DISPLAY" style="rounded=1;whiteSpace=wrap;html=1;fillColor=#d5e8d4;strokeColor=#82b366;shadow=1;glass=0;sketch=0;" vertex="1" parent="1">
          <mxGeometry x="630" y="100" width="120" height="60" as="geometry" />
        </mxCell>
        <mxCell id="9dUxcS6R7O2TgOQSEWJq-9" value="MICRO" style="text;html=1;resizable=0;autosize=1;align=center;verticalAlign=middle;points=[];fillColor=none;strokeColor=none;rounded=0;shadow=1;glass=0;sketch=0;" vertex="1" parent="1">
          <mxGeometry x="474" y="170" width="50" height="20" as="geometry" />
        </mxCell>
      </root>
    </mxGraphModel>
  </diagram>
</mxfile>
